<svg version="1.1" xmlns="http://www.w3.org/2000/svg" style="display: block;" viewBox="0 0 2048 2048" width="1024" height="1024" preserveAspectRatio="none">
<path transform="translate(0,0)" fill="rgb(31,69,117)" d="M 717.536 440.395 C 729.213 439.892 748.642 440.798 761.147 440.868 L 856.295 441.018 L 1246.05 440.613 C 1326.29 439.913 1391.73 461.992 1450.69 518.753 C 1501.07 567.261 1525.74 630.554 1530.76 699.526 C 1532.22 719.584 1531.72 744.036 1531.76 764.596 L 1532.13 872.711 C 1575.37 875.927 1636.56 907.574 1667.87 938.17 C 1824.63 1091.36 1739.24 1351.5 1521.81 1382.32 C 1507.84 1384.29 1488.96 1383.08 1474.56 1383.07 C 1472.26 1382.29 1455.06 1380.94 1451.39 1380.51 C 1437.06 1378.82 1422.96 1375.53 1409.36 1370.7 C 1398.4 1366.83 1387.42 1361.65 1377.04 1356.91 C 1371.65 1354.45 1345.33 1338.39 1342.9 1338.61 C 1326.52 1340.07 1311.38 1347.39 1293.79 1349.03 C 1259.55 1352.22 1222.88 1351.11 1188.46 1351.21 L 996.02 1351.54 L 801.254 1351.33 C 767.026 1351.23 725.774 1353.35 692.429 1348.17 C 574.749 1329.89 481.843 1233.51 463.992 1116.3 C 460.966 1096.44 462.071 1067.82 461.995 1047.26 L 461.777 940.556 L 461.806 783.65 C 461.824 738.838 458.15 699.849 467.897 655.757 C 478.134 609.442 495.429 573.017 525.635 536.659 C 576.857 475.007 640.322 449.148 717.536 440.395 z M 1230.74 1118.37 C 1212.15 1099.63 1191.79 1083.53 1172.34 1063.8 C 1163.7 1055.02 1128.58 1028.78 1159.47 1018.1 C 1164.4 1016.39 1171.41 1016.5 1176.59 1015.44 C 1205.02 1012.3 1233.29 1007.64 1261.72 1004.53 C 1300.22 944.443 1317.9 928.835 1378.94 893.223 L 1378.75 794.769 C 1378.71 773.92 1379.85 746.724 1377.72 726.404 C 1372.89 680.19 1341.87 630.172 1298.96 610.355 C 1290.71 606.546 1282.03 601.72 1273.32 598.824 C 1252.44 593.83 1224.38 594.121 1202.86 594.348 C 1057.11 595.883 910.513 592.828 764.806 594.5 C 752.494 594.559 739.86 594.798 727.998 597.627 C 669.057 611.682 626.978 660.346 615.484 718.99 C 612.523 734.096 613.563 751.7 613.611 767.19 L 613.717 829.337 L 613.976 1056.04 C 614.202 1090.63 630.928 1127.43 655.605 1151.89 C 706.513 1202.36 745.585 1197.91 811.152 1197.42 C 913.323 1196.65 1015.66 1197.02 1117.74 1197.03 L 1197.78 1197.07 C 1207.64 1197.09 1231.19 1197.73 1239.45 1196.53 C 1240.72 1194.78 1240.21 1192.96 1239.68 1190.56 C 1237.15 1179.19 1234.78 1169.37 1233.21 1158.07 C 1232.17 1150.56 1232.09 1122.93 1230.74 1118.37 z"/>
<path transform="translate(0,0)" fill="rgb(31,69,117)" d="M 1106.99 977.6 C 1115.6 977.753 1121.47 983.78 1121.08 992.44 C 1120.08 1014.21 1105.62 1034.37 1091.37 1049.92 C 1068.71 1074.65 1029.38 1088.88 996.498 1089.74 C 973.756 1090.34 930.249 1077.02 913.803 1060.82 C 895.073 1045.61 878.598 1025.02 872.494 1001.32 C 869.815 985.032 872.422 978.526 888.92 978.03 C 961.088 975.857 1035.04 980.27 1106.99 977.6 z"/>
<path transform="translate(0,0)" fill="rgb(65,165,233)" d="M 908.707 1008.34 C 964.289 1006.72 1028.02 1007.9 1083.97 1008.28 C 1077.6 1020.96 1071.58 1027.76 1061.12 1037.03 C 1051.96 1043.85 1041.81 1049.21 1031.01 1052.92 C 1003.68 1062.44 973.648 1060.3 947.954 1047 C 934.242 1040.01 913.437 1023.05 908.707 1008.34 z"/>
<path transform="translate(0,0)" fill="rgb(31,69,117)" d="M 792.602 730.723 C 838.172 727.388 877.808 761.649 881.101 807.222 C 884.394 852.796 850.097 892.4 804.521 895.652 C 759.003 898.9 719.461 864.656 716.172 819.141 C 712.883 773.627 747.09 734.054 792.602 730.723 z"/>
<path transform="translate(0,0)" fill="rgb(65,165,233)" d="M 796.645 761.605 C 825.319 760.428 849.49 782.778 850.558 811.456 C 851.625 840.134 829.184 864.22 800.501 865.178 C 771.973 866.131 748.046 843.836 746.984 815.312 C 745.922 786.788 768.125 762.776 796.645 761.605 z"/>
<path transform="translate(0,0)" fill="rgb(31,69,117)" d="M 1180.34 731.792 C 1225.27 724.292 1267.78 754.639 1275.28 799.574 C 1282.78 844.509 1252.43 887.016 1207.5 894.516 C 1162.56 902.016 1120.06 871.67 1112.56 826.734 C 1105.06 781.799 1135.4 739.292 1180.34 731.792 z"/>
<path transform="translate(0,0)" fill="rgb(65,165,233)" d="M 1188.42 761.688 C 1216.75 758.639 1242.26 778.986 1245.57 807.29 C 1248.89 835.595 1228.78 861.287 1200.51 864.871 C 1171.86 868.502 1145.75 848.067 1142.39 819.383 C 1139.02 790.698 1159.71 764.779 1188.42 761.688 z"/>
<path transform="translate(0,0)" fill="rgb(65,165,233)" d="M 717.59 472.43 C 731.027 471.185 759.2 472.002 773.12 472.022 L 881.706 472.168 L 1236.82 472.134 C 1243.72 472.142 1251.23 472.395 1258.01 472.212 C 1384.65 468.793 1490.65 569.823 1499.23 695.158 C 1500.84 718.638 1500.49 741.934 1500.53 765.58 L 1500.36 867.347 C 1468.02 865.917 1440.44 871.274 1409.71 879.843 C 1410.06 850.471 1409.26 819.06 1409.86 790.16 C 1411.28 722.768 1408.91 668.434 1358.62 616.634 C 1324.97 581.969 1281.71 563.292 1233.02 563.033 L 895.255 563 L 801.87 563 C 778.354 563.002 748.898 561.69 726.485 566.278 C 692.282 573.054 660.902 589.945 636.41 614.763 C 612.821 638.547 596.144 668.298 588.162 700.831 C 581.38 728.89 582.818 748.132 582.852 776.587 L 582.861 837.559 L 582.915 1037.5 C 582.837 1044.28 582.905 1051.06 583.12 1057.84 C 585.171 1107.1 608.04 1150.99 644.282 1183.8 C 667.867 1205.11 696.895 1219.48 728.147 1225.3 C 752.489 1229.94 790.155 1228.77 816.013 1228.77 L 933.208 1228.74 L 1129.5 1228.8 C 1168.81 1228.8 1212.58 1229.75 1251.46 1227.68 C 1268.42 1263.68 1283.41 1285.71 1312.19 1313.37 C 1302.02 1315.25 1284.8 1318.75 1274.87 1319.13 C 1240.43 1320.44 1204.85 1319.88 1170.35 1319.88 L 973.032 1319.87 L 805.737 1319.93 C 773.261 1319.93 719.641 1321.5 689.156 1315.63 C 648.114 1307.59 609.893 1288.94 578.296 1261.54 C 528.313 1218.72 497.715 1157.54 493.428 1091.86 C 492.013 1071.08 492.671 1044.72 492.669 1023.48 L 492.655 909.722 L 492.653 778.607 C 492.692 738.212 490.68 697.197 499.401 657.742 C 507.972 618.882 526.341 582.861 552.762 553.104 C 595.73 504.16 652.615 476.707 717.59 472.43 z"/>
<path transform="translate(0,0)" fill="rgb(65,165,233)" d="M 1474.66 899.409 C 1489.22 897.177 1511 899.388 1525.58 901.532 C 1649.37 919.734 1736.12 1040.76 1714.13 1165.01 C 1703.21 1224.9 1668.9 1277.99 1618.77 1312.55 C 1569.15 1346.91 1507.82 1359.96 1448.51 1348.76 C 1403.03 1341.18 1360.55 1316.27 1328.3 1283.78 C 1292.93 1248.2 1270.42 1201.86 1264.33 1152.07 C 1262.58 1136.78 1262.94 1122.43 1263.02 1107.08 C 1256.53 1098.51 1243.13 1087.09 1234.74 1079.47 C 1221.97 1067.92 1209.34 1056.22 1196.84 1044.37 C 1211.65 1040.99 1280.6 1036.14 1285.68 1026.35 C 1324.76 950.891 1390.18 907.343 1474.66 899.409 z"/>
<path transform="translate(0,0)" fill="rgb(254,254,254)" d="M 1439.02 1023.22 C 1448.61 1022.52 1462.71 1025.82 1467.57 1034.75 C 1477.72 1053.4 1485.03 1074.77 1493.18 1094.42 L 1518.83 1157.64 C 1523.27 1168.44 1540.3 1204.25 1537.93 1213.94 C 1536.49 1219.76 1532.63 1224.68 1527.33 1227.47 C 1500.82 1241.19 1491.05 1197.54 1484.12 1179.26 C 1473.76 1179.61 1461.71 1179.39 1451.25 1179.42 C 1434.68 1179.34 1416.26 1178.88 1399.87 1179.65 C 1397.07 1192.14 1391.3 1204.94 1386.37 1216.79 C 1381.13 1229.38 1369.5 1234.07 1357.63 1226.58 C 1347.96 1220.48 1347.06 1211.42 1350.69 1201.32 C 1357.76 1181.6 1366.01 1162.25 1373.69 1142.72 L 1400.48 1076.1 C 1405.89 1062.63 1411.8 1046.2 1419.15 1033.79 C 1423.23 1026.91 1431.74 1024.75 1439.02 1023.22 z"/>
<path transform="translate(0,0)" fill="rgb(65,165,233)" d="M 1441.6 1067.64 C 1444.69 1070.51 1468.83 1137.94 1471.94 1146.97 L 1444.5 1146.96 L 1412.67 1147.01 C 1420.84 1127.28 1435.49 1087.5 1441.6 1067.64 z"/>
<path transform="translate(0,0)" fill="rgb(254,254,254)" d="M 1583.21 1023.08 C 1585.94 1023.1 1588.8 1023.13 1591.45 1023.75 C 1597.16 1025.09 1602.34 1028.42 1605.1 1033.7 C 1607.42 1038.16 1607.52 1043.96 1607.78 1048.91 C 1608.69 1065.85 1609.43 1207.95 1606.36 1217.14 C 1604.05 1224.05 1598.23 1226.98 1592.01 1229.76 C 1588.45 1229.92 1584.65 1230.18 1581.19 1229.24 C 1576.18 1227.88 1572.18 1224.68 1569.8 1220.05 C 1567.58 1215.72 1567.47 1210.17 1567.2 1205.37 C 1566.1 1185.55 1565.27 1045.21 1569 1035.81 C 1571.75 1028.9 1576.55 1025.7 1583.21 1023.08 z"/>
<path transform="translate(0,0)" fill="rgb(31,69,117)" d="M 1320.73 1624.35 C 1366.58 1620.05 1396.76 1647.34 1403 1691.99 C 1409.51 1738.52 1391.63 1784.57 1340.23 1790.83 C 1296.1 1793.21 1263.54 1773.57 1256.5 1726.8 C 1249.21 1678.3 1267.56 1632.13 1320.73 1624.35 z M 1333.25 1766.29 C 1379.72 1761.87 1385.25 1683.45 1354.94 1658.18 C 1346.45 1651.1 1338.13 1649.98 1327.67 1649.29 C 1296.42 1654.92 1286.71 1676.6 1285.88 1705.85 C 1285.03 1735.92 1298.5 1766.3 1333.25 1766.29 z"/>
<path transform="translate(0,0)" fill="rgb(31,69,117)" d="M 1117.97 1627.1 C 1141.24 1626.37 1168.26 1626.49 1191.14 1627.19 C 1215.85 1627.95 1231.95 1652.55 1227.61 1675.85 C 1225.01 1689.87 1219.53 1695.36 1208.33 1703.63 C 1220.87 1711.31 1231.1 1717.89 1234.28 1733.48 C 1237.32 1748.4 1234.73 1759.42 1226.62 1771.74 C 1220.72 1779.67 1208.89 1786.5 1199.05 1787.3 C 1173.29 1789.34 1145.46 1790.2 1119.76 1787.98 C 1111.9 1787.3 1108.43 1778.22 1108.46 1771.42 C 1108.63 1726.16 1107.15 1680.46 1108.87 1635.33 C 1109 1632.03 1115.56 1628.45 1117.97 1627.1 z M 1195.35 1760.89 C 1205.73 1751.47 1204.95 1743.95 1202.76 1731.11 C 1187.55 1710.82 1162.21 1717.96 1139.11 1717.09 C 1139.39 1730.92 1140.34 1752.72 1139.3 1765.9 C 1156.73 1764.65 1181.55 1768.48 1195.35 1760.89 z M 1138.89 1694.08 L 1140.16 1693.99 C 1156.75 1692.95 1178.28 1696.7 1191.39 1687.59 C 1196.17 1682.29 1196.8 1680.17 1198.99 1673.4 C 1196.47 1656.21 1190.5 1650.49 1172.07 1649.99 C 1160.93 1649.7 1149.25 1650.73 1138.17 1650.27 C 1139.39 1665.47 1138.34 1679.19 1138.89 1694.08 z"/>
<path transform="translate(0,0)" fill="rgb(31,69,117)" d="M 892.312 1625.18 C 902.659 1625.03 911.067 1624.63 916.045 1635.53 C 926.16 1658.78 937.034 1685.81 945.47 1709.46 C 950.328 1723.08 974.233 1774.25 967.222 1783.36 C 945.292 1811.84 932.688 1761.43 929.072 1750.54 C 919.947 1750 909.954 1750.2 900.75 1750.2 C 888.939 1750.29 877.128 1750.31 865.318 1750.26 C 860.847 1762.83 853.513 1800.23 834.222 1789.49 C 826.853 1785.92 823.966 1776.75 826.966 1768.93 C 844.248 1723.92 859.321 1677.68 878.868 1633.6 C 880.842 1629.15 887.98 1626.26 892.312 1625.18 z M 873.857 1725.44 L 895.75 1725.43 C 903.971 1725.49 912.727 1725.37 920.866 1726.14 C 917.745 1718.01 898.074 1660.88 896.127 1658.61 C 891.613 1673.02 886.842 1687.35 881.818 1701.59 C 879.377 1708.63 875.449 1718.48 873.857 1725.44 z"/>
<path transform="translate(0,0)" fill="rgb(31,69,117)" d="M 773.83 1690.19 C 773.472 1677.53 771.099 1632.84 778.427 1628.3 C 807.847 1610.07 803.525 1660.39 803.22 1667.76 C 801.652 1705.5 806.415 1745.58 802.811 1782 C 795.404 1791.99 794.716 1791.86 782.58 1790.54 C 778.782 1788.36 776.882 1785.64 774 1782.31 C 772.737 1766.66 773.259 1732.52 773.61 1716.1 C 751.808 1716.13 726.734 1716.88 705.332 1716.3 C 705.508 1733.93 706.8 1766.95 704.144 1783.22 C 693.287 1795.41 676.596 1792.93 676.411 1776.12 C 675.888 1728.61 675.178 1680.6 676.763 1633.17 C 676.874 1629.84 683.507 1626.47 685.884 1625.11 L 687.43 1625.09 C 714.985 1624.74 706.154 1669.07 706.209 1690.14 L 773.83 1690.19 z"/>
<path transform="translate(0,0)" fill="rgb(31,69,117)" d="M 578.276 1624.4 C 593.422 1623.25 608.562 1626.73 621.685 1634.38 C 632.853 1640.99 642.035 1652.29 645.051 1664.8 C 647.238 1673.88 646.842 1685.13 635.358 1685.73 C 619.123 1686.58 616.767 1666.41 605.624 1657.01 C 598.413 1650.87 588.928 1648.1 579.548 1649.39 C 544.644 1654.07 538.457 1696.13 542.497 1724.26 C 548.32 1764.79 589.541 1784.49 615.197 1747.66 C 617.282 1743.71 619.228 1738.31 621.094 1733.81 C 623.728 1725.38 634.297 1723.1 641.497 1727.53 C 654.007 1735.24 642.944 1758.3 637.259 1766.57 C 617.216 1795.7 566.654 1798.16 539.831 1777.88 C 525.734 1767.22 514.647 1745.26 512.515 1727.71 C 509.746 1700.46 510.814 1672.23 528.924 1650.02 C 542.575 1633.08 557.728 1626.96 578.276 1624.4 z"/>
<path transform="translate(0,0)" fill="rgb(31,69,117)" d="M 969.728 1627.15 C 985.924 1626.79 1078.57 1624.43 1084.2 1629.18 C 1087.06 1631.59 1088.43 1637.13 1088.42 1640.73 C 1088.41 1643.9 1087.01 1646.5 1084.7 1648.58 C 1076.83 1655.65 1050.7 1652.29 1040.1 1652.17 C 1040.46 1685.94 1040.59 1719.7 1040.49 1753.47 C 1040.59 1762.91 1041.82 1779.59 1035.98 1786.82 C 1028.29 1795.85 1010.55 1789.83 1009.91 1777.97 C 1009.18 1764.48 1009.49 1750.54 1009.49 1737 C 1009.59 1708.71 1009.53 1680.42 1009.31 1652.12 C 995.684 1652.11 984.997 1653.27 970.672 1652.65 C 959.659 1644.93 957.936 1634.9 969.728 1627.15 z"/>
<path transform="translate(0,0)" fill="rgb(31,69,117)" d="M 1429.55 1626.47 C 1445.44 1626.44 1524.81 1624.25 1532.89 1628.51 C 1535.67 1629.98 1537.2 1632.85 1537.8 1635.86 C 1538.58 1639.74 1538.19 1644.72 1535.6 1647.9 C 1528.7 1656.35 1500.13 1652.98 1489.28 1653.07 C 1488.36 1689.17 1490.2 1726.72 1489.76 1763.25 C 1489.59 1772.61 1490.52 1779.76 1483.66 1787.3 C 1474.73 1797.8 1459.75 1788.43 1459.82 1776.93 C 1460.09 1736.7 1457.48 1692.97 1459.85 1653.05 C 1446.05 1651.47 1429.1 1655.58 1416.45 1650.08 C 1407.82 1646.33 1411.39 1634.8 1416.39 1629.6 C 1419.59 1626.28 1425.22 1626.59 1429.55 1626.47 z"/>
</svg>